# xmcd
#
# Track frame offsets:
#	150
#	21248
#	38882
#	55317
#	82703
#	98061
#	116363
#	135684
#	155481
#	171458
#	183954
#	205184
#	230297
#	241125
#	260062
#	283144
#	299735
#
# Disc length: 4231 seconds
#
# Revision: 1
# Processed by: cddbd v1.5.2PL0 Copyright (c) Steve Scherf et al.
# Submitted via: audiograbber 1.83.01
#
DISCID=f1108511
DTITLE=Calvin Russel - Best Of
DYEAR=2017
DGENRE=Blues,Rock
TTITLE0=A Crack In Time
TTITLE1=Living At The End Of A Gun
TTITLE2=Nothing
TTITLE3=My Way
TTITLE4=Behind The 8 Ball
TTITLE5=This Is My Life
TTITLE6=Automated
TTITLE7=Little Stars
TTITLE8=Moments
TTITLE9=Wagon To Stars
TTITLE10=Last Night
TTITLE11=May Be Someday
TTITLE12=Baby I Love You
TTITLE13=Love Stealer
TTITLE14=You Don't Know
TTITLE15=Down Down Down
TTITLE16=On Meat Ball
EXTD=
EXTT0=
EXTT1=
EXTT2=
EXTT3=
EXTT4=
EXTT5=
EXTT6=
EXTT7=
EXTT8=
EXTT9=
EXTT10=
EXTT11=
EXTT12=
EXTT13=
EXTT14=
EXTT15=
EXTT16=
PLAYORDER=
